# MagicaVoxel @ Ephtracy

# group
g Cruiser

# material
mtllib Cruiser.mtl
usemtl palette

# normals
vn -1 0 0
vn 1 0 0
vn 0 0 1
vn 0 0 -1
vn 0 -1 0
vn 0 1 0

# texcoords
vt 0.447266 0.5
vt 0.841797 0.5
vt 0.955078 0.5
vt 0.986328 0.5
vt 0.990234 0.5

# verts
v -5 16 13
v -5 16 4
v -5 17 13
v -5 17 4
v -4 15 14
v -4 15 3
v -4 16 13
v -4 16 4
v -4 17 13
v -4 17 4
v -4 17 3
v -4 18 14
v -4 18 4
v -3 13 9
v -3 13 -1
v -3 14 -1
v -3 14 -14
v -3 15 16
v -3 15 14
v -3 15 9
v -3 15 3
v -3 15 -14
v -3 15 -15
v -3 16 -14
v -3 16 -15
v -3 17 4
v -3 17 3
v -3 17 1
v -3 17 -14
v -3 18 16
v -3 18 14
v -3 18 4
v -3 18 1
v -2 13 -1
v -2 13 -14
v -2 14 -1
v -2 14 -14
v -2 14 -15
v -2 15 20
v -2 15 16
v -2 15 -14
v -2 15 -15
v -2 16 -14
v -2 16 -15
v -2 17 1
v -2 17 -11
v -2 17 -14
v -2 17 -15
v -2 18 20
v -2 18 16
v -2 18 14
v -2 18 4
v -2 18 3
v -2 18 1
v -2 18 -11
v -2 19 14
v -2 19 3
v -2 20 14
v -2 20 3
v -2 21 14
v -2 21 3
v -1 10 -16
v -1 10 -19
v -1 11 -13
v -1 11 -16
v -1 12 9
v -1 12 -13
v -1 13 9
v -1 13 -14
v -1 14 15
v -1 14 9
v -1 14 7
v -1 14 -14
v -1 14 -15
v -1 15 15
v -1 15 7
v -1 17 -11
v -1 17 -15
v -1 18 -11
v -1 18 -19
v -1 19 13
v -1 19 4
v -1 20 13
v -1 20 4
v 1 13 9
v 1 13 8
v 1 14 9
v 1 14 8
v 1 16 20
v 1 16 19
v 1 17 20
v 1 17 19
v 2 14 9
v 2 14 7
v 2 15 9
v 2 15 7
v -2 14 9
v -2 14 7
v -2 15 9
v -2 15 7
v -1 13 9
v -1 13 8
v -1 14 9
v -1 14 8
v -1 16 20
v -1 16 19
v -1 17 20
v -1 17 19
v 1 10 -16
v 1 10 -19
v 1 11 -13
v 1 11 -16
v 1 12 9
v 1 12 -13
v 1 13 9
v 1 13 -14
v 1 14 15
v 1 14 9
v 1 14 7
v 1 14 -14
v 1 14 -15
v 1 15 15
v 1 15 7
v 1 17 -11
v 1 17 -15
v 1 18 -11
v 1 18 -19
v 1 19 13
v 1 19 4
v 1 20 13
v 1 20 4
v 2 13 -1
v 2 13 -14
v 2 14 -1
v 2 14 -14
v 2 14 -15
v 2 15 20
v 2 15 16
v 2 15 -14
v 2 15 -15
v 2 16 -14
v 2 16 -15
v 2 17 1
v 2 17 -11
v 2 17 -14
v 2 17 -15
v 2 18 20
v 2 18 16
v 2 18 14
v 2 18 4
v 2 18 3
v 2 18 1
v 2 18 -11
v 2 19 14
v 2 19 3
v 2 20 14
v 2 20 3
v 2 21 14
v 2 21 3
v 3 13 9
v 3 13 -1
v 3 14 -1
v 3 14 -14
v 3 15 16
v 3 15 14
v 3 15 9
v 3 15 3
v 3 15 -14
v 3 15 -15
v 3 16 -14
v 3 16 -15
v 3 17 4
v 3 17 3
v 3 17 1
v 3 17 -14
v 3 18 16
v 3 18 14
v 3 18 4
v 3 18 1
v 4 15 14
v 4 15 3
v 4 16 13
v 4 16 4
v 4 17 13
v 4 17 4
v 4 17 3
v 4 18 14
v 4 18 4
v 5 16 13
v 5 16 4
v 5 17 13
v 5 17 4
v -2 15 20
v -2 18 20
v -1 16 20
v -1 17 20
v 1 16 20
v 1 17 20
v 2 15 20
v 2 18 20
v -1 16 19
v -1 17 19
v 1 16 19
v 1 17 19
v -3 15 16
v -3 18 16
v -2 15 16
v -2 18 16
v 2 15 16
v 2 18 16
v 3 15 16
v 3 18 16
v -1 14 15
v -1 15 15
v 1 14 15
v 1 15 15
v -4 15 14
v -4 18 14
v -3 15 14
v -3 18 14
v -2 18 14
v -2 19 14
v -2 20 14
v -2 21 14
v 2 18 14
v 2 19 14
v 2 20 14
v 2 21 14
v 3 15 14
v 3 18 14
v 4 15 14
v 4 18 14
v -5 16 13
v -5 17 13
v -4 16 13
v -4 17 13
v -1 19 13
v -1 20 13
v 1 19 13
v 1 20 13
v 4 16 13
v 4 17 13
v 5 16 13
v 5 17 13
v -3 13 9
v -3 15 9
v -2 13 9
v -2 14 9
v -2 15 9
v -1 12 9
v -1 13 9
v -1 14 9
v 1 12 9
v 1 13 9
v 1 14 9
v 2 13 9
v 2 14 9
v 2 15 9
v 3 13 9
v 3 15 9
v -1 13 8
v -1 14 8
v 1 13 8
v 1 14 8
v -2 14 7
v -2 15 7
v -1 14 7
v -1 15 7
v 1 14 7
v 1 15 7
v 2 14 7
v 2 15 7
v -1 11 -13
v -1 12 -13
v 1 11 -13
v 1 12 -13
v -1 10 -16
v -1 11 -16
v 1 10 -16
v 1 11 -16
v -5 16 4
v -5 17 4
v -4 16 4
v -4 17 4
v -4 18 4
v -3 17 4
v -3 18 4
v -1 19 4
v -1 20 4
v 1 19 4
v 1 20 4
v 3 17 4
v 3 18 4
v 4 16 4
v 4 17 4
v 4 18 4
v 5 16 4
v 5 17 4
v -4 15 3
v -4 17 3
v -3 15 3
v -3 17 3
v -2 18 3
v -2 19 3
v -2 20 3
v -2 21 3
v 2 18 3
v 2 19 3
v 2 20 3
v 2 21 3
v 3 15 3
v 3 17 3
v 4 15 3
v 4 17 3
v -3 17 1
v -3 18 1
v -2 17 1
v -2 18 1
v 2 17 1
v 2 18 1
v 3 17 1
v 3 18 1
v -3 13 -1
v -3 14 -1
v -2 13 -1
v -2 14 -1
v 2 13 -1
v 2 14 -1
v 3 13 -1
v 3 14 -1
v -2 17 -11
v -2 18 -11
v -1 17 -11
v -1 18 -11
v 1 17 -11
v 1 18 -11
v 2 17 -11
v 2 18 -11
v -3 14 -14
v -3 15 -14
v -3 16 -14
v -3 17 -14
v -2 13 -14
v -2 14 -14
v -2 15 -14
v -2 16 -14
v -2 17 -14
v -1 13 -14
v -1 14 -14
v 1 13 -14
v 1 14 -14
v 2 13 -14
v 2 14 -14
v 2 15 -14
v 2 16 -14
v 2 17 -14
v 3 14 -14
v 3 15 -14
v 3 16 -14
v 3 17 -14
v -3 15 -15
v -3 16 -15
v -2 14 -15
v -2 15 -15
v -2 16 -15
v -2 17 -15
v -1 14 -15
v -1 17 -15
v 1 14 -15
v 1 17 -15
v 2 14 -15
v 2 15 -15
v 2 16 -15
v 2 17 -15
v 3 15 -15
v 3 16 -15
v -1 10 -19
v -1 18 -19
v 1 10 -19
v 1 18 -19
v -1 10 -16
v 1 10 -16
v -1 10 -19
v 1 10 -19
v -1 11 -13
v 1 11 -13
v -1 11 -16
v 1 11 -16
v -1 12 9
v 1 12 9
v -1 12 -13
v 1 12 -13
v -3 13 9
v -2 13 9
v -1 13 9
v 1 13 9
v 2 13 9
v 3 13 9
v -3 13 -1
v -2 13 -1
v 2 13 -1
v 3 13 -1
v -2 13 -14
v -1 13 -14
v 1 13 -14
v 2 13 -14
v -1 14 15
v 1 14 15
v -1 14 9
v 1 14 9
v -1 14 8
v 1 14 8
v -3 14 -1
v -2 14 -1
v 2 14 -1
v 3 14 -1
v -3 14 -14
v -2 14 -14
v -1 14 -14
v 1 14 -14
v 2 14 -14
v 3 14 -14
v -2 14 -15
v -1 14 -15
v 1 14 -15
v 2 14 -15
v -2 15 20
v 2 15 20
v -3 15 16
v -2 15 16
v 2 15 16
v 3 15 16
v -1 15 15
v 1 15 15
v -4 15 14
v -3 15 14
v 3 15 14
v 4 15 14
v -3 15 9
v -2 15 9
v 2 15 9
v 3 15 9
v -2 15 7
v -1 15 7
v 1 15 7
v 2 15 7
v -4 15 3
v -3 15 3
v 3 15 3
v 4 15 3
v -3 15 -14
v -2 15 -14
v 2 15 -14
v 3 15 -14
v -3 15 -15
v -2 15 -15
v 2 15 -15
v 3 15 -15
v -5 16 13
v -4 16 13
v 4 16 13
v 5 16 13
v -5 16 4
v -4 16 4
v 4 16 4
v 5 16 4
v -1 17 20
v 1 17 20
v -1 17 19
v 1 17 19
v -2 20 14
v 2 20 14
v -1 20 13
v 1 20 13
v -1 20 4
v 1 20 4
v -2 20 3
v 2 20 3
v -1 13 9
v 1 13 9
v -1 13 8
v 1 13 8
v -2 14 9
v -1 14 9
v 1 14 9
v 2 14 9
v -2 14 7
v -1 14 7
v 1 14 7
v 2 14 7
v -1 16 20
v 1 16 20
v -1 16 19
v 1 16 19
v -3 16 -14
v -2 16 -14
v 2 16 -14
v 3 16 -14
v -3 16 -15
v -2 16 -15
v 2 16 -15
v 3 16 -15
v -5 17 13
v -4 17 13
v 4 17 13
v 5 17 13
v -5 17 4
v -4 17 4
v -3 17 4
v 3 17 4
v 4 17 4
v 5 17 4
v -4 17 3
v -3 17 3
v 3 17 3
v 4 17 3
v -3 17 1
v -2 17 1
v 2 17 1
v 3 17 1
v -2 17 -11
v -1 17 -11
v 1 17 -11
v 2 17 -11
v -3 17 -14
v -2 17 -14
v 2 17 -14
v 3 17 -14
v -2 17 -15
v -1 17 -15
v 1 17 -15
v 2 17 -15
v -2 18 20
v 2 18 20
v -3 18 16
v -2 18 16
v 2 18 16
v 3 18 16
v -4 18 14
v -3 18 14
v -2 18 14
v 2 18 14
v 3 18 14
v 4 18 14
v -4 18 4
v -3 18 4
v -2 18 4
v 2 18 4
v 3 18 4
v 4 18 4
v -2 18 3
v 2 18 3
v -3 18 1
v -2 18 1
v 2 18 1
v 3 18 1
v -2 18 -11
v -1 18 -11
v 1 18 -11
v 2 18 -11
v -1 18 -19
v 1 18 -19
v -2 19 14
v 2 19 14
v -1 19 13
v 1 19 13
v -1 19 4
v 1 19 4
v -2 19 3
v 2 19 3
v -2 21 14
v 2 21 14
v -2 21 3
v 2 21 3

# faces
f 3/3/1 2/3/1 1/3/1
f 4/3/1 2/3/1 3/3/1
f 7/5/1 6/5/1 5/5/1
f 8/5/1 6/5/1 7/5/1
f 9/5/1 7/5/1 5/5/1
f 10/5/1 6/5/1 8/5/1
f 11/5/1 6/5/1 10/5/1
f 12/5/1 9/5/1 5/5/1
f 12/5/1 10/5/1 9/5/1
f 13/5/1 10/5/1 12/5/1
f 16/3/1 15/3/1 14/3/1
f 20/3/1 16/3/1 14/3/1
f 20/3/1 17/3/1 16/3/1
f 21/3/1 17/3/1 20/3/1
f 22/3/1 17/3/1 21/3/1
f 24/3/1 23/3/1 22/3/1
f 24/3/1 22/3/1 21/3/1
f 25/3/1 23/3/1 24/3/1
f 27/3/1 24/3/1 21/3/1
f 28/3/1 24/3/1 27/3/1
f 29/3/1 24/3/1 28/3/1
f 30/5/1 19/5/1 18/5/1
f 31/5/1 19/5/1 30/5/1
f 32/3/1 27/3/1 26/3/1
f 32/3/1 28/3/1 27/3/1
f 33/3/1 28/3/1 32/3/1
f 36/5/1 35/5/1 34/5/1
f 37/5/1 35/5/1 36/5/1
f 41/5/1 38/5/1 37/5/1
f 42/5/1 38/5/1 41/5/1
f 47/5/1 44/5/1 43/5/1
f 48/5/1 44/5/1 47/5/1
f 49/5/1 40/5/1 39/5/1
f 50/5/1 40/5/1 49/5/1
f 54/5/1 46/5/1 45/5/1
f 55/5/1 46/5/1 54/5/1
f 56/5/1 53/5/1 52/5/1
f 56/5/1 52/5/1 51/5/1
f 57/5/1 53/5/1 56/5/1
f 60/3/1 59/3/1 58/3/1
f 61/3/1 59/3/1 60/3/1
f 65/4/1 63/4/1 62/4/1
f 67/4/1 65/4/1 64/4/1
f 68/4/1 67/4/1 66/4/1
f 69/4/1 65/4/1 67/4/1
f 69/4/1 67/4/1 68/4/1
f 73/4/1 65/4/1 69/4/1
f 74/4/1 65/4/1 73/4/1
f 75/5/1 72/5/1 71/5/1
f 75/5/1 71/5/1 70/5/1
f 76/5/1 72/5/1 75/5/1
f 78/4/1 65/4/1 74/4/1
f 79/4/1 78/4/1 77/4/1
f 80/4/1 63/4/1 65/4/1
f 80/4/1 78/4/1 79/4/1
f 80/4/1 65/4/1 78/4/1
f 83/5/1 82/5/1 81/5/1
f 84/5/1 82/5/1 83/5/1
f 87/5/1 86/5/1 85/5/1
f 88/5/1 86/5/1 87/5/1
f 91/5/1 90/5/1 89/5/1
f 92/5/1 90/5/1 91/5/1
f 95/3/1 94/3/1 93/3/1
f 96/3/1 94/3/1 95/3/1
f 97/3/2 98/3/2 99/3/2
f 99/3/2 98/3/2 100/3/2
f 101/5/2 102/5/2 103/5/2
f 103/5/2 102/5/2 104/5/2
f 105/5/2 106/5/2 107/5/2
f 107/5/2 106/5/2 108/5/2
f 109/4/2 110/4/2 112/4/2
f 111/4/2 112/4/2 114/4/2
f 113/4/2 114/4/2 115/4/2
f 114/4/2 112/4/2 116/4/2
f 115/4/2 114/4/2 116/4/2
f 116/4/2 112/4/2 120/4/2
f 120/4/2 112/4/2 121/4/2
f 118/5/2 119/5/2 122/5/2
f 117/5/2 118/5/2 122/5/2
f 122/5/2 119/5/2 123/5/2
f 121/4/2 112/4/2 125/4/2
f 124/4/2 125/4/2 126/4/2
f 112/4/2 110/4/2 127/4/2
f 126/4/2 125/4/2 127/4/2
f 125/4/2 112/4/2 127/4/2
f 128/5/2 129/5/2 130/5/2
f 130/5/2 129/5/2 131/5/2
f 132/5/2 133/5/2 134/5/2
f 134/5/2 133/5/2 135/5/2
f 135/5/2 136/5/2 139/5/2
f 139/5/2 136/5/2 140/5/2
f 141/5/2 142/5/2 145/5/2
f 145/5/2 142/5/2 146/5/2
f 137/5/2 138/5/2 147/5/2
f 147/5/2 138/5/2 148/5/2
f 143/5/2 144/5/2 152/5/2
f 152/5/2 144/5/2 153/5/2
f 150/5/2 151/5/2 154/5/2
f 149/5/2 150/5/2 154/5/2
f 154/5/2 151/5/2 155/5/2
f 156/3/2 157/3/2 158/3/2
f 158/3/2 157/3/2 159/3/2
f 160/3/2 161/3/2 162/3/2
f 160/3/2 162/3/2 166/3/2
f 162/3/2 163/3/2 166/3/2
f 166/3/2 163/3/2 167/3/2
f 167/3/2 163/3/2 168/3/2
f 168/3/2 169/3/2 170/3/2
f 167/3/2 168/3/2 170/3/2
f 170/3/2 169/3/2 171/3/2
f 167/3/2 170/3/2 173/3/2
f 173/3/2 170/3/2 174/3/2
f 174/3/2 170/3/2 175/3/2
f 164/5/2 165/5/2 176/5/2
f 176/5/2 165/5/2 177/5/2
f 172/3/2 173/3/2 178/3/2
f 173/3/2 174/3/2 178/3/2
f 178/3/2 174/3/2 179/3/2
f 180/5/2 181/5/2 182/5/2
f 182/5/2 181/5/2 183/5/2
f 180/5/2 182/5/2 184/5/2
f 183/5/2 181/5/2 185/5/2
f 185/5/2 181/5/2 186/5/2
f 180/5/2 184/5/2 187/5/2
f 184/5/2 185/5/2 187/5/2
f 187/5/2 185/5/2 188/5/2
f 189/3/2 190/3/2 191/3/2
f 191/3/2 190/3/2 192/3/2
f 195/5/3 194/5/3 193/5/3
f 196/5/3 194/5/3 195/5/3
f 197/5/3 195/5/3 193/5/3
f 198/5/3 194/5/3 196/5/3
f 199/5/3 197/5/3 193/5/3
f 199/5/3 198/5/3 197/5/3
f 200/5/3 194/5/3 198/5/3
f 200/5/3 198/5/3 199/5/3
f 203/2/3 202/2/3 201/2/3
f 204/2/3 202/2/3 203/2/3
f 207/5/3 206/5/3 205/5/3
f 208/5/3 206/5/3 207/5/3
f 211/5/3 210/5/3 209/5/3
f 212/5/3 210/5/3 211/5/3
f 215/5/3 214/5/3 213/5/3
f 216/5/3 214/5/3 215/5/3
f 219/5/3 218/5/3 217/5/3
f 220/5/3 218/5/3 219/5/3
f 225/5/3 222/5/3 221/5/3
f 226/5/3 222/5/3 225/5/3
f 227/3/3 224/3/3 223/3/3
f 228/3/3 224/3/3 227/3/3
f 231/5/3 230/5/3 229/5/3
f 232/5/3 230/5/3 231/5/3
f 235/3/3 234/3/3 233/3/3
f 236/3/3 234/3/3 235/3/3
f 239/5/3 238/5/3 237/5/3
f 240/5/3 238/5/3 239/5/3
f 243/3/3 242/3/3 241/3/3
f 244/3/3 242/3/3 243/3/3
f 247/3/3 246/3/3 245/3/3
f 248/3/3 246/3/3 247/3/3
f 249/3/3 246/3/3 248/3/3
f 251/5/3 248/5/3 247/5/3
f 252/5/3 248/5/3 251/5/3
f 253/4/3 251/4/3 250/4/3
f 254/4/3 251/4/3 253/4/3
f 256/5/3 255/5/3 254/5/3
f 257/5/3 255/5/3 256/5/3
f 259/3/3 257/3/3 256/3/3
f 259/3/3 258/3/3 257/3/3
f 260/3/3 258/3/3 259/3/3
f 263/2/3 262/2/3 261/2/3
f 264/2/3 262/2/3 263/2/3
f 267/2/3 266/2/3 265/2/3
f 268/2/3 266/2/3 267/2/3
f 271/2/3 270/2/3 269/2/3
f 272/2/3 270/2/3 271/2/3
f 275/4/3 274/4/3 273/4/3
f 276/4/3 274/4/3 275/4/3
f 279/4/3 278/4/3 277/4/3
f 280/4/3 278/4/3 279/4/3
f 281/3/4 282/3/4 283/3/4
f 283/3/4 282/3/4 284/3/4
f 284/5/4 285/5/4 286/5/4
f 286/5/4 285/5/4 287/5/4
f 288/5/4 289/5/4 290/5/4
f 290/5/4 289/5/4 291/5/4
f 292/5/4 293/5/4 295/5/4
f 295/5/4 293/5/4 296/5/4
f 294/3/4 295/3/4 297/3/4
f 297/3/4 295/3/4 298/3/4
f 299/5/4 300/5/4 301/5/4
f 301/5/4 300/5/4 302/5/4
f 303/5/4 304/5/4 307/5/4
f 307/5/4 304/5/4 308/5/4
f 305/3/4 306/3/4 309/3/4
f 309/3/4 306/3/4 310/3/4
f 311/5/4 312/5/4 313/5/4
f 313/5/4 312/5/4 314/5/4
f 315/3/4 316/3/4 317/3/4
f 317/3/4 316/3/4 318/3/4
f 319/3/4 320/3/4 321/3/4
f 321/3/4 320/3/4 322/3/4
f 323/3/4 324/3/4 325/3/4
f 325/3/4 324/3/4 326/3/4
f 327/3/4 328/3/4 329/3/4
f 329/3/4 328/3/4 330/3/4
f 331/5/4 332/5/4 333/5/4
f 333/5/4 332/5/4 334/5/4
f 335/5/4 336/5/4 337/5/4
f 337/5/4 336/5/4 338/5/4
f 339/3/4 340/3/4 344/3/4
f 344/3/4 340/3/4 345/3/4
f 341/3/4 342/3/4 346/3/4
f 346/3/4 342/3/4 347/3/4
f 343/5/4 344/5/4 348/5/4
f 348/5/4 344/5/4 349/5/4
f 350/5/4 351/5/4 352/5/4
f 352/5/4 351/5/4 353/5/4
f 353/3/4 354/3/4 357/3/4
f 357/3/4 354/3/4 358/3/4
f 355/3/4 356/3/4 359/3/4
f 359/3/4 356/3/4 360/3/4
f 361/3/4 362/3/4 364/3/4
f 364/3/4 362/3/4 365/3/4
f 363/5/4 364/5/4 367/5/4
f 365/5/4 366/5/4 367/5/4
f 364/5/4 365/5/4 367/5/4
f 367/5/4 366/5/4 368/5/4
f 369/5/4 370/5/4 371/5/4
f 371/5/4 370/5/4 372/5/4
f 372/5/4 370/5/4 373/5/4
f 373/5/4 370/5/4 374/5/4
f 372/3/4 373/3/4 375/3/4
f 375/3/4 373/3/4 376/3/4
f 377/4/4 378/4/4 379/4/4
f 379/4/4 378/4/4 380/4/4
f 383/4/5 382/4/5 381/4/5
f 384/4/5 382/4/5 383/4/5
f 387/4/5 386/4/5 385/4/5
f 388/4/5 386/4/5 387/4/5
f 391/4/5 390/4/5 389/4/5
f 392/4/5 390/4/5 391/4/5
f 399/3/5 394/3/5 393/3/5
f 400/5/5 395/5/5 394/5/5
f 400/3/5 394/3/5 399/3/5
f 401/3/5 398/3/5 397/3/5
f 401/5/5 397/5/5 396/5/5
f 402/3/5 398/3/5 401/3/5
f 403/5/5 395/5/5 400/5/5
f 404/5/5 395/5/5 403/5/5
f 405/5/5 401/5/5 396/5/5
f 406/5/5 401/5/5 405/5/5
f 409/5/5 408/5/5 407/5/5
f 410/5/5 408/5/5 409/5/5
f 411/5/5 410/5/5 409/5/5
f 412/5/5 410/5/5 411/5/5
f 417/3/5 414/3/5 413/3/5
f 418/3/5 414/3/5 417/3/5
f 421/3/5 416/3/5 415/3/5
f 422/3/5 416/3/5 421/3/5
f 423/5/5 419/5/5 418/5/5
f 424/5/5 419/5/5 423/5/5
f 425/5/5 421/5/5 420/5/5
f 426/5/5 421/5/5 425/5/5
f 430/5/5 428/5/5 427/5/5
f 431/5/5 428/5/5 430/5/5
f 433/5/5 430/5/5 429/5/5
f 433/5/5 432/5/5 431/5/5
f 433/5/5 431/5/5 430/5/5
f 434/5/5 432/5/5 433/5/5
f 436/5/5 433/5/5 429/5/5
f 437/5/5 432/5/5 434/5/5
f 439/5/5 436/5/5 435/5/5
f 439/5/5 433/5/5 436/5/5
f 440/5/5 433/5/5 439/5/5
f 441/5/5 438/5/5 437/5/5
f 441/5/5 437/5/5 434/5/5
f 442/5/5 438/5/5 441/5/5
f 443/5/5 433/5/5 440/5/5
f 444/5/5 433/5/5 443/5/5
f 445/5/5 441/5/5 434/5/5
f 446/5/5 441/5/5 445/5/5
f 447/5/5 439/5/5 435/5/5
f 448/5/5 439/5/5 447/5/5
f 449/5/5 438/5/5 442/5/5
f 450/5/5 438/5/5 449/5/5
f 455/3/5 452/3/5 451/3/5
f 456/3/5 452/3/5 455/3/5
f 457/3/5 454/3/5 453/3/5
f 458/3/5 454/3/5 457/3/5
f 463/3/5 460/3/5 459/3/5
f 464/3/5 460/3/5 463/3/5
f 465/3/5 462/3/5 461/3/5
f 466/3/5 462/3/5 465/3/5
f 469/5/5 468/5/5 467/5/5
f 470/5/5 468/5/5 469/5/5
f 473/3/5 472/3/5 471/3/5
f 474/3/5 472/3/5 473/3/5
f 475/3/5 473/3/5 471/3/5
f 476/3/5 472/3/5 474/3/5
f 477/3/5 475/3/5 471/3/5
f 477/3/5 476/3/5 475/3/5
f 478/3/5 472/3/5 476/3/5
f 478/3/5 476/3/5 477/3/5
f 479/4/6 480/4/6 481/4/6
f 481/4/6 480/4/6 482/4/6
f 483/5/6 484/5/6 487/5/6
f 487/5/6 484/5/6 488/5/6
f 485/5/6 486/5/6 489/5/6
f 489/5/6 486/5/6 490/5/6
f 491/5/6 492/5/6 493/5/6
f 493/5/6 492/5/6 494/5/6
f 495/3/6 496/3/6 499/3/6
f 499/3/6 496/3/6 500/3/6
f 497/3/6 498/3/6 501/3/6
f 501/3/6 498/3/6 502/3/6
f 503/3/6 504/3/6 507/3/6
f 507/3/6 504/3/6 508/3/6
f 505/3/6 506/3/6 511/3/6
f 511/3/6 506/3/6 512/3/6
f 508/5/6 509/5/6 513/5/6
f 513/5/6 509/5/6 514/5/6
f 510/5/6 511/5/6 515/5/6
f 515/5/6 511/5/6 516/5/6
f 517/3/6 518/3/6 521/3/6
f 519/3/6 520/3/6 524/3/6
f 517/3/6 521/3/6 525/3/6
f 521/5/6 522/5/6 526/5/6
f 525/3/6 521/3/6 526/3/6
f 523/5/6 524/5/6 527/5/6
f 524/3/6 520/3/6 527/3/6
f 527/3/6 520/3/6 528/3/6
f 526/5/6 522/5/6 529/5/6
f 529/5/6 522/5/6 530/5/6
f 523/5/6 527/5/6 531/5/6
f 531/5/6 527/5/6 532/5/6
f 533/5/6 534/5/6 536/5/6
f 536/5/6 534/5/6 537/5/6
f 535/5/6 536/5/6 540/5/6
f 537/5/6 538/5/6 540/5/6
f 536/5/6 537/5/6 540/5/6
f 540/5/6 538/5/6 541/5/6
f 541/5/6 538/5/6 542/5/6
f 542/5/6 538/5/6 543/5/6
f 539/5/6 540/5/6 545/5/6
f 540/5/6 541/5/6 545/5/6
f 545/5/6 541/5/6 546/5/6
f 546/5/6 541/5/6 547/5/6
f 543/5/6 544/5/6 548/5/6
f 542/5/6 543/5/6 548/5/6
f 548/5/6 544/5/6 549/5/6
f 549/5/6 544/5/6 550/5/6
f 546/3/6 547/3/6 551/3/6
f 548/3/6 549/3/6 552/3/6
f 546/3/6 551/3/6 553/3/6
f 551/5/6 552/5/6 554/5/6
f 553/3/6 551/3/6 554/3/6
f 552/3/6 549/3/6 555/3/6
f 554/5/6 552/5/6 555/5/6
f 555/3/6 549/3/6 556/3/6
f 554/5/6 555/5/6 557/5/6
f 557/5/6 555/5/6 558/5/6
f 558/5/6 555/5/6 559/5/6
f 559/5/6 555/5/6 560/5/6
f 558/4/6 559/4/6 561/4/6
f 561/4/6 559/4/6 562/4/6
f 563/5/6 564/5/6 565/5/6
f 565/5/6 564/5/6 566/5/6
f 563/5/6 565/5/6 567/5/6
f 566/5/6 564/5/6 568/5/6
f 563/5/6 567/5/6 569/5/6
f 567/5/6 568/5/6 569/5/6
f 568/5/6 564/5/6 570/5/6
f 569/5/6 568/5/6 570/5/6
f 571/3/6 572/3/6 573/3/6
f 573/3/6 572/3/6 574/3/6
